<svg width="20" height="22" viewBox="0 0 20 22" fill="none" xmlns="http://www.w3.org/2000/svg">
    <path
        d="M11.4999 4.5C12.5899 4.5 13.4999 3.58 13.4999 2.5C13.4999 1.38 12.5899 0.5 11.4999 0.5C10.3899 0.5 9.49989 1.38 9.49989 2.5C9.49989 3.58 10.3899 4.5 11.4999 4.5ZM7.88989 18.38L8.88989 14L10.9999 16V22H12.9999V14.5L10.8899 12.5L11.4999 9.5C12.7899 11 14.7899 12 16.9999 12V10C15.0899 10 13.4999 9 12.6899 7.58L11.6899 6C11.2899 5.38 10.6899 5 9.99989 5C9.68989 5 9.49989 5.08 9.18989 5.08L3.99989 7.28V12H5.99989V8.58L7.78989 7.88L6.18989 16L1.28989 15L0.889893 17L7.88989 18.38Z"
        fill="white" />
</svg>
