<svg width="20" height="20" viewBox="0 0 20 20" fill="none" xmlns="http://www.w3.org/2000/svg">
    <path
        d="M19.89 8.32L19.1 5.8C19.0147 5.50876 18.8717 5.23767 18.6793 5.00292C18.487 4.76817 18.2493 4.57456 17.9806 4.43364C17.7118 4.29272 17.4174 4.20737 17.1149 4.1827C16.8124 4.15802 16.5081 4.19451 16.22 4.29L15.88 4.4C15.6137 4.48805 15.33 4.51039 15.0531 4.46511C14.7763 4.41984 14.5145 4.3083 14.29 4.14L14.18 4.06C13.961 3.89237 13.7845 3.67562 13.6646 3.42723C13.5448 3.17884 13.485 2.90575 13.49 2.63V2.35C13.4949 1.72202 13.2503 1.11779 12.81 0.67C12.6006 0.458452 12.3515 0.290362 12.0769 0.175383C11.8023 0.0604042 11.5077 0.000802192 11.21 0H8.66004C8.04821 0.00790627 7.46428 0.257192 7.03538 0.693583C6.60648 1.12997 6.36735 1.71813 6.37003 2.33V2.57C6.36907 2.86027 6.30299 3.14663 6.17665 3.40796C6.05031 3.6693 5.86693 3.89895 5.64003 4.08L5.51004 4.18C5.25938 4.36962 4.9662 4.49516 4.65599 4.5457C4.34578 4.59624 4.02792 4.57025 3.73003 4.47C3.45645 4.37533 3.1665 4.33715 2.87773 4.35777C2.58897 4.3784 2.30739 4.4574 2.05003 4.59C1.78209 4.72299 1.54438 4.90969 1.3517 5.1385C1.15901 5.36731 1.01548 5.63333 0.930035 5.92L0.110035 8.52C-0.080123 9.1062 -0.0313567 9.74374 0.245744 10.2942C0.522844 10.8447 1.00591 11.2636 1.59003 11.46H1.75003C2.01949 11.561 2.26134 11.7241 2.45594 11.9361C2.65054 12.148 2.79241 12.4029 2.87003 12.68L2.93003 12.84C3.04151 13.1461 3.07879 13.4743 3.03881 13.7977C2.99883 14.121 2.88272 14.4302 2.70003 14.7C2.33025 15.2036 2.17428 15.8328 2.26604 16.4508C2.3578 17.0688 2.68988 17.6256 3.19003 18L5.26004 19.57C5.65199 19.855 6.12547 20.0058 6.61003 20C6.73972 20.0127 6.87035 20.0127 7.00003 20C7.30014 19.9419 7.58526 19.8233 7.838 19.6514C8.09073 19.4794 8.30579 19.2578 8.47004 19L8.70004 18.67C8.86138 18.4386 9.07486 18.2483 9.32325 18.1145C9.57165 17.9808 9.84801 17.9073 10.13 17.9C10.4256 17.8927 10.7182 17.9604 10.9805 18.0968C11.2428 18.2332 11.4663 18.4339 11.63 18.68L11.75 18.85C11.9205 19.1037 12.1412 19.3199 12.3984 19.4852C12.6555 19.6504 12.9438 19.7613 13.2455 19.8109C13.5471 19.8606 13.8558 19.848 14.1523 19.7739C14.4489 19.6997 14.7272 19.5657 14.97 19.38L17 17.86C17.48 17.4872 17.7992 16.945 17.8922 16.3444C17.9851 15.7438 17.8448 15.1304 17.5 14.63L17.24 14.25C17.0837 14.0084 16.9813 13.736 16.9399 13.4512C16.8985 13.1664 16.919 12.8761 17 12.6C17.0826 12.3044 17.236 12.0334 17.4468 11.8104C17.6576 11.5874 17.9196 11.4191 18.21 11.32L18.41 11.25C18.9887 11.0492 19.4667 10.6312 19.7429 10.0845C20.0191 9.53769 20.0718 8.90496 19.89 8.32ZM10 13.5C9.3078 13.5 8.63111 13.2947 8.05554 12.9101C7.47997 12.5256 7.03136 11.9789 6.76646 11.3394C6.50155 10.6999 6.43224 9.99612 6.56729 9.31718C6.70233 8.63825 7.03568 8.01461 7.52516 7.52513C8.01464 7.03564 8.63829 6.7023 9.31722 6.56725C9.99615 6.4322 10.6999 6.50151 11.3394 6.76642C11.979 7.03133 12.5256 7.47993 12.9102 8.0555C13.2948 8.63108 13.5 9.30777 13.5 10C13.5 10.9283 13.1313 11.8185 12.4749 12.4749C11.8185 13.1313 10.9283 13.5 10 13.5Z"
        fill="white" />
</svg>
