<svg width="55" height="72" viewBox="0 0 55 72" fill="none" xmlns="http://www.w3.org/2000/svg">
    <path
        d="M36 13.3333C39.6333 13.3333 42.6666 10.2667 42.6666 6.66667C42.6666 2.93333 39.6333 0 36 0C32.3 0 29.3333 2.93333 29.3333 6.66667C29.3333 10.2667 32.3 13.3333 36 13.3333ZM23.9666 59.6L27.3 45L34.3333 51.6667V71.6667H41V46.6667L33.9666 40L36 30C40.3 35 46.9666 38.3333 54.3333 38.3333V31.6667C47.9666 31.6667 42.6666 28.3333 39.9666 23.6L36.6333 18.3333C35.3 16.2667 33.3 15 31 15C29.9666 15 29.3333 15.2667 28.3 15.2667L11 22.6V38.3333H17.6666V26.9333L23.6333 24.6L18.3 51.6667L1.96663 48.3333L0.633301 55L23.9666 59.6Z"
        fill="#29282F" fill-opacity="0.08" />
</svg>
