<svg width="28" height="28" viewBox="0 0 28 28" fill="none" xmlns="http://www.w3.org/2000/svg">
<path d="M24.6667 0.984375H3.33341C1.86675 0.984375 0.666748 2.18437 0.666748 3.65104V19.651C0.666748 21.1177 1.86675 22.3177 3.33341 22.3177H8.66675V26.3177C8.66675 27.1177 9.20008 27.651 10.0001 27.651H10.6667C10.9334 27.651 11.3334 27.5177 11.6001 27.251L16.5334 22.3177H24.6667C26.1334 22.3177 27.3334 21.1177 27.3334 19.651V3.65104C27.3334 2.18437 26.1334 0.984375 24.6667 0.984375ZM12.6667 15.651H7.33341V10.051L9.06675 6.31771H11.7334L9.86675 10.3177H12.6667V15.651ZM20.6667 15.651H15.3334V10.051L17.0667 6.31771H19.7334L17.8667 10.3177H20.6667V15.651Z" fill="#A2E492"/>
</svg>
