<svg width="18" height="17" viewBox="0 0 18 17" fill="none" xmlns="http://www.w3.org/2000/svg">
    <path
        d="M17.0002 13C17.0002 13.8841 16.649 14.7319 16.0239 15.357C15.3987 15.9821 14.5509 16.3333 13.6668 16.3333H11.1668C10.2828 16.3333 9.43493 15.9821 8.80981 15.357C8.18469 14.7319 7.8335 13.8841 7.8335 13V11.3333H13.4918L15.7918 7.35833L17.0918 8.10833L15.2252 11.3333H17.0002V13ZM6.16683 16.3333H0.333496C0.333496 13.8333 0.333496 11.3333 0.608496 8.69167C0.833496 6.58333 1.2335 4.38333 1.66683 2.16667H1.16683V0.5H2.00016H4.50016H5.3335V2.16667H4.8335C5.26683 4.38333 5.66683 6.58333 5.89183 8.69167C6.16683 11.3333 6.16683 13.8333 6.16683 16.3333Z"
        fill="white"  />
</svg>
