<svg width="24" height="26" viewBox="0 0 24 26" fill="none" xmlns="http://www.w3.org/2000/svg">
<path d="M12 12.6776C11.04 12.6776 10.4 13.3176 10.4 14.2776C10.4 14.9176 10.88 15.3976 11.36 15.5576L10.88 17.7976H12.96L12.48 15.5576C13.12 15.3976 13.44 14.9176 13.44 14.2776C13.6 13.3176 12.96 12.6776 12 12.6776ZM12.16 5.79758C11.04 5.79758 9.92005 6.59758 9.92005 7.71758V10.1176H14.24V7.71758C14.08 6.59758 13.28 5.79758 12.16 5.79758ZM12 0.517578L0.800049 5.31758V10.1176C0.960049 17.1576 5.44005 23.3976 12 25.9576C18.56 23.3976 23.04 17.1576 23.2 10.1176V5.31758L12 0.517578ZM18.4 18.1176C18.4 19.0776 17.76 19.7176 16.8 19.7176H7.20005C6.24005 19.7176 5.60005 19.0776 5.60005 18.1176V11.7176C5.60005 10.7576 6.24005 10.1176 7.20005 10.1176H7.68005V7.71758C7.84005 5.47758 9.76005 3.71758 12 3.71758C14.24 3.71758 16.16 5.47758 16.32 7.71758V10.1176H16.8C17.76 10.1176 18.4 10.7576 18.4 11.7176V18.1176Z" fill="#A2E492"/>
</svg>
