<svg width="20" height="20" viewBox="0 0 20 20" fill="none" xmlns="http://www.w3.org/2000/svg">
    <path
        d="M15.6635 5.03906C16.8229 5.22148 17.7738 5.76836 18.5171 6.67969C19.1711 7.48711 19.6171 8.50273 19.8546 9.72656C20.0631 10.8465 20.0475 11.966 19.81 13.0859C19.4533 14.9348 18.7399 16.4844 17.6698 17.7344C16.3912 19.2449 14.7863 20 12.8542 20C12.3783 20 11.8586 19.8699 11.2935 19.6094C10.9068 19.4012 10.476 19.2969 10.0002 19.2969C9.52426 19.2969 9.0939 19.4012 8.70685 19.6094C8.14167 19.8699 7.62203 20 7.14613 20C5.21399 20 3.60908 19.2449 2.33051 17.7344C1.26042 16.4844 0.547025 14.9348 0.190328 13.0859C-0.0471718 11.966 -0.0627968 10.8465 0.145685 9.72656C0.383185 8.50273 0.829168 7.48711 1.48319 6.67969C2.22649 5.76836 3.17738 5.22148 4.33676 5.03906C5.05015 4.93477 6.03095 5.02617 7.27961 5.3125C8.3497 5.57305 9.2564 5.88555 9.9997 6.25C10.743 5.88555 11.6497 5.57305 12.7198 5.3125C13.9689 5.02617 14.9502 4.93477 15.6635 5.03906ZM13.2109 3.4375C12.7948 3.77617 12.2443 4.02344 11.5609 4.17969C11.085 4.30977 10.5653 4.375 10.0002 4.375L9.3314 4.33594C9.27203 3.97148 9.27203 3.55469 9.3314 3.08594C9.4506 2.14844 9.79212 1.43242 10.3568 0.9375C10.7729 0.598828 11.3234 0.351562 12.0068 0.195312C12.4827 0.0652344 13.0024 0 13.5676 0L14.2363 0.0390625L14.281 0.625C14.281 1.11992 14.2064 1.57539 14.0582 1.99219C13.8801 2.59102 13.5979 3.07305 13.2109 3.4375Z"
        fill="#29282F" />
</svg>
