<svg width="19" height="19" viewBox="0 0 19 19" fill="none" xmlns="http://www.w3.org/2000/svg">
    <path
        d="M18.084 0.913547C16.906 -0.265453 14.85 -0.265453 13.672 0.913547L5.293 9.29255C5.20005 9.38533 5.12632 9.49554 5.07601 9.61685C5.0257 9.73817 4.9998 9.86821 4.9998 9.99955C4.9998 10.1309 5.0257 10.2609 5.07601 10.3822C5.12632 10.5036 5.20005 10.6138 5.293 10.7065L8.293 13.7065C8.38565 13.7997 8.49581 13.8737 8.61715 13.9241C8.73848 13.9746 8.86859 14.0006 9 14.0006C9.13141 14.0006 9.26152 13.9746 9.38285 13.9241C9.50419 13.8737 9.61435 13.7997 9.707 13.7065L18.086 5.32755C18.6706 4.74171 18.9988 3.94777 18.9984 3.12013C18.998 2.2925 18.6691 1.49885 18.084 0.913547ZM5 12.9995C3.735 12.3655 1.5 12.9995 1.5 14.9995C1.5 16.1965 2 16.9995 0 17.9995C0 17.9995 3.25 20.2495 5.5 17.9995C6.774 16.7255 6.994 13.9995 5 12.9995Z"
        fill="#29282F" />
</svg>
