<svg width="21" height="21" viewBox="0 0 21 21" fill="none" xmlns="http://www.w3.org/2000/svg">
    <path
        d="M7.98908 2.10095C7.28926 3.6201 7.07184 5.31723 7.3661 6.96374C7.66036 8.61024 8.45218 10.127 9.63488 11.3097C10.8176 12.4924 12.3343 13.2842 13.9808 13.5785C15.6273 13.8727 17.3245 13.6553 18.8436 12.9555C17.94 17.0246 14.31 20.0664 9.96908 20.0664C4.94817 20.0664 0.878174 15.9964 0.878174 10.9755C0.878174 6.63459 3.91999 3.00459 7.98908 2.10095ZM15.5727 2.14913L16.3327 2.33913V3.24822L15.5727 3.43822C15.2531 3.51816 14.9612 3.68345 14.7282 3.91643C14.4952 4.14941 14.3299 4.44132 14.25 4.76095L14.06 5.52095H13.1509L12.9609 4.76095C12.881 4.44132 12.7157 4.14941 12.4827 3.91643C12.2497 3.68345 11.9578 3.51816 11.6382 3.43822L10.8782 3.24822V2.33913L11.6382 2.14913C11.9576 2.06905 12.2494 1.90369 12.4822 1.67073C12.715 1.43776 12.8801 1.14593 12.96 0.826406L13.1509 0.0664062H14.06L14.25 0.826406C14.3299 1.14604 14.4952 1.43795 14.7282 1.67093C14.9612 1.9039 15.2531 2.06919 15.5727 2.14913ZM20.1182 6.69459L20.8782 6.88459V7.79368L20.1182 7.98368C19.7985 8.06362 19.5066 8.22891 19.2737 8.46189C19.0407 8.69486 18.8754 8.98677 18.7954 9.30641L18.6054 10.0664H17.6964L17.5064 9.30641C17.4264 8.98677 17.2611 8.69486 17.0281 8.46189C16.7952 8.22891 16.5033 8.06362 16.1836 7.98368L15.4236 7.79368V6.88459L16.1836 6.69459C16.5033 6.61465 16.7952 6.44936 17.0281 6.21638C17.2611 5.9834 17.4264 5.6915 17.5064 5.37186L17.6964 4.61186H18.6054L18.7954 5.37186C18.8754 5.6915 19.0407 5.9834 19.2737 6.21638C19.5066 6.44936 19.7985 6.61465 20.1182 6.69459Z"
        fill="#29282F"/>
</svg>
